<svg width="45" height="45" viewBox="0 0 45 45" fill="none" xmlns="http://www.w3.org/2000/svg">
<g id="ico-/-24-/-actions-/-search">
<path id="Icon-color" d="M39.1406 36.488L31.6406 28.9789C31.3977 28.7299 31.1272 28.5095 30.8344 28.3219L28.9594 27.0266C32.8161 22.2487 32.8519 15.4331 29.0456 10.6148C25.2393 5.79659 18.6067 4.26158 13.0746 6.91859C7.54238 9.5756 4.58706 15.7155 5.95824 21.7033C7.32942 27.6911 12.6611 31.9288 18.7969 31.9074C21.7745 31.9083 24.6638 30.8955 26.9906 29.0352L28.3969 30.9125C28.5637 31.1543 28.7519 31.3805 28.9594 31.5883L36.4594 39.0974C36.6354 39.2751 36.875 39.375 37.125 39.375C37.375 39.375 37.6146 39.2751 37.7906 39.0974L39.1031 37.7833C39.4591 37.4308 39.4756 36.8605 39.1406 36.488ZM18.7969 28.1529C13.6192 28.1529 9.42187 23.9505 9.42187 18.7666C9.42187 13.5827 13.6192 9.38033 18.7969 9.38033C23.9745 9.38033 28.1719 13.5827 28.1719 18.7666C28.1719 21.256 27.1841 23.6435 25.426 25.4037C23.6678 27.164 21.2833 28.1529 18.7969 28.1529Z" fill="white"/>
</g>
</svg>
