<svg width="45" height="45" viewBox="0 0 45 45" fill="none" xmlns="http://www.w3.org/2000/svg">
<g id="settings" clip-path="url(#clip0_327_1308)">
<g id="ico-/-24-/-ui-/-settings">
<path id="Icon-color" d="M39.375 27.629L37.875 26.389C36.9656 25.6325 36.4653 24.4907 36.525 23.3079C36.525 23.0448 36.525 22.763 36.525 22.5C36.525 22.237 36.525 21.9552 36.525 21.6921C36.4653 20.5093 36.9656 19.3675 37.875 18.611L39.375 17.371C40.0867 16.7927 40.277 15.7837 39.825 14.985L37.65 11.2276C37.189 10.443 36.233 10.1026 35.3813 10.4197L33.5063 11.096C32.3998 11.5104 31.1631 11.3781 30.1688 10.7391C29.728 10.434 29.2641 10.1638 28.7813 9.93122C27.7262 9.38907 26.9892 8.37888 26.7938 7.20704L26.475 5.3283C26.3265 4.40949 25.5289 3.73818 24.6 3.75016H20.2875C19.3587 3.73818 18.5611 4.40949 18.4125 5.3283L18.0938 7.20704C17.9147 8.36407 17.2076 9.37133 16.1813 9.93122C15.6985 10.1638 15.2346 10.434 14.7938 10.7391C13.7995 11.3781 12.5628 11.5104 11.4563 11.096L9.58128 10.4197C8.74043 10.1233 7.80759 10.4611 7.35003 11.2276L5.17503 14.985C4.72301 15.7837 4.91331 16.7927 5.62503 17.371L7.12503 18.611C8.03449 19.3675 8.53479 20.5093 8.47503 21.6921C8.47503 21.9552 8.47503 22.237 8.47503 22.5C8.47503 22.763 8.47503 23.0448 8.47503 23.3079C8.53479 24.4907 8.03449 25.6325 7.12503 26.389L5.62503 27.629C4.91331 28.2073 4.72301 29.2163 5.17503 30.015L7.35003 33.7725C7.81104 34.557 8.76707 34.8974 9.61878 34.5803L11.4938 33.904C12.6003 33.4896 13.837 33.6219 14.8313 34.2609C15.272 34.566 15.736 34.8362 16.2188 35.0688C17.2738 35.6109 18.0109 36.6211 18.2063 37.793L18.525 39.6717C18.6736 40.5905 19.4712 41.2618 20.4 41.2498H24.7125C25.6414 41.2618 26.439 40.5905 26.5875 39.6717L26.9063 37.793C27.1017 36.6211 27.8387 35.6109 28.8938 35.0688C29.3766 34.8362 29.8405 34.566 30.2813 34.2609C31.2756 33.6219 32.5123 33.4896 33.6188 33.904L35.4938 34.5803C36.3123 34.8369 37.2003 34.5042 37.65 33.7725L39.825 30.015C40.277 29.2163 40.0867 28.2073 39.375 27.629ZM22.5 28.1362C19.3934 28.1362 16.875 25.6128 16.875 22.5C16.875 19.3872 19.3934 16.8638 22.5 16.8638C25.6066 16.8638 28.125 19.3872 28.125 22.5C28.125 23.9948 27.5324 25.4284 26.4775 26.4854C25.4226 27.5424 23.9919 28.1362 22.5 28.1362Z" fill="#7D7D7D"/>
</g>
</g>
<defs>
<clipPath id="clip0_327_1308">
<rect width="45" height="45" fill="white"/>
</clipPath>
</defs>
</svg>
